<svg width="192" height="163" viewBox="0 0 192 163" fill="none" xmlns="http://www.w3.org/2000/svg">
<path d="M153.723 37.4303L98.8792 0.867923C97.0072 -0.284028 95.0094 -0.294575 93.1204 0.867923L38.2767 37.4303C36.8705 38.3676 36 40.042 36 41.7159V78.2781C36 79.9522 36.8705 81.6264 38.2769 82.5639L93.1206 119.131C94.9925 120.283 96.9904 120.294 98.8794 119.131L153.723 82.5639C155.129 81.6266 156 79.9522 156 78.2781V41.7159C156 40.042 155.129 38.3676 153.723 37.4303V37.4303ZM101.156 14.7961L141.536 41.7159L123.522 53.7695L101.156 38.8364V14.7961ZM90.8436 14.7961V38.8364L68.4775 53.7695L50.4642 41.7159L90.8436 14.7961ZM46.3125 51.3588L59.2366 59.9971L46.3125 68.6354V51.3588ZM90.8436 105.198L50.4642 78.2783L68.4775 66.2247L90.8436 81.1578V105.198ZM95.9999 72.1846L77.7855 59.9971L95.9999 47.8096L114.214 59.9971L95.9999 72.1846ZM101.156 105.198V81.1578L123.522 66.2247L141.536 78.2783L101.156 105.198ZM145.687 68.6354L132.763 59.9971L145.687 51.3588V68.6354Z" fill="#5F6368" fill-opacity="0.5"/>
<path d="M131.31 29.0075C123.698 29.4395 108.57 31.0117 99.2313 36.7285C98.5869 37.123 98.2216 37.8244 98.2216 38.5577V89.0961C98.2216 90.7003 99.9758 91.7142 101.455 90.9697C111.063 86.1335 124.96 84.8141 131.83 84.4529C134.176 84.3293 136 82.4487 136 80.1945V33.2715C136.001 30.8117 133.868 28.8631 131.31 29.0075ZM92.7687 36.7285C83.431 31.0117 68.303 29.4409 60.6917 29.0075C58.1334 28.8631 56 30.8117 56 33.2715V80.1959C56 82.4515 57.8236 84.3321 60.1695 84.4543C67.0432 84.8155 80.9463 86.1363 90.5548 90.9753C92.0298 91.7183 93.7784 90.7058 93.7784 89.1058V38.5327C93.7784 37.798 93.4145 37.1243 92.7687 36.7285Z" fill="black"/>
<path d="M47.7765 149V134.455H50.4114V141.138H50.589L56.2637 134.455H59.481L53.856 140.982L59.5307 149H56.3631L52.0236 142.764L50.4114 144.668V149H47.7765ZM65.1557 149.213C64.0904 149.213 63.1671 148.979 62.3858 148.51C61.6046 148.041 60.9985 147.385 60.5676 146.543C60.1415 145.7 59.9284 144.715 59.9284 143.588C59.9284 142.461 60.1415 141.474 60.5676 140.626C60.9985 139.779 61.6046 139.121 62.3858 138.652C63.1671 138.183 64.0904 137.949 65.1557 137.949C66.2211 137.949 67.1444 138.183 67.9256 138.652C68.7069 139.121 69.3105 139.779 69.7367 140.626C70.1676 141.474 70.383 142.461 70.383 143.588C70.383 144.715 70.1676 145.7 69.7367 146.543C69.3105 147.385 68.7069 148.041 67.9256 148.51C67.1444 148.979 66.2211 149.213 65.1557 149.213ZM65.1699 147.153C65.7476 147.153 66.2305 146.995 66.6188 146.678C67.007 146.356 67.2959 145.925 67.4853 145.385C67.6794 144.845 67.7765 144.244 67.7765 143.581C67.7765 142.913 67.6794 142.31 67.4853 141.77C67.2959 141.225 67.007 140.792 66.6188 140.47C66.2305 140.148 65.7476 139.987 65.1699 139.987C64.5781 139.987 64.0856 140.148 63.6926 140.47C63.3044 140.792 63.0132 141.225 62.8191 141.77C62.6297 142.31 62.535 142.913 62.535 143.581C62.535 144.244 62.6297 144.845 62.8191 145.385C63.0132 145.925 63.3044 146.356 63.6926 146.678C64.0856 146.995 64.5781 147.153 65.1699 147.153ZM78.0126 138.091V140.08H71.7413V138.091H78.0126ZM73.2896 135.477H75.8606V145.719C75.8606 146.064 75.9127 146.33 76.0169 146.514C76.1258 146.694 76.2678 146.817 76.443 146.884C76.6182 146.95 76.8123 146.983 77.0254 146.983C77.1864 146.983 77.3332 146.971 77.4657 146.947C77.603 146.924 77.7072 146.902 77.7782 146.884L78.2115 148.893C78.0742 148.941 77.8777 148.993 77.622 149.05C77.371 149.107 77.0633 149.14 76.6987 149.149C76.0547 149.168 75.4747 149.071 74.9586 148.858C74.4425 148.64 74.033 148.304 73.7299 147.849C73.4316 147.395 73.2849 146.827 73.2896 146.145V135.477ZM84.8042 149.213C83.7388 149.213 82.8155 148.979 82.0343 148.51C81.253 148.041 80.647 147.385 80.2161 146.543C79.79 145.7 79.5769 144.715 79.5769 143.588C79.5769 142.461 79.79 141.474 80.2161 140.626C80.647 139.779 81.253 139.121 82.0343 138.652C82.8155 138.183 83.7388 137.949 84.8042 137.949C85.8695 137.949 86.7928 138.183 87.574 138.652C88.3553 139.121 88.959 139.779 89.3851 140.626C89.816 141.474 90.0314 142.461 90.0314 143.588C90.0314 144.715 89.816 145.7 89.3851 146.543C88.959 147.385 88.3553 148.041 87.574 148.51C86.7928 148.979 85.8695 149.213 84.8042 149.213ZM84.8184 147.153C85.396 147.153 85.879 146.995 86.2672 146.678C86.6555 146.356 86.9443 145.925 87.1337 145.385C87.3278 144.845 87.4249 144.244 87.4249 143.581C87.4249 142.913 87.3278 142.31 87.1337 141.77C86.9443 141.225 86.6555 140.792 86.2672 140.47C85.879 140.148 85.396 139.987 84.8184 139.987C84.2265 139.987 83.7341 140.148 83.3411 140.47C82.9528 140.792 82.6616 141.225 82.4675 141.77C82.2781 142.31 82.1834 142.913 82.1834 143.581C82.1834 144.244 82.2781 144.845 82.4675 145.385C82.6616 145.925 82.9528 146.356 83.3411 146.678C83.7341 146.995 84.2265 147.153 84.8184 147.153ZM92.3272 149V134.455H94.8983V139.895H95.0048C95.1374 139.63 95.3244 139.348 95.5659 139.05C95.8074 138.747 96.1341 138.489 96.546 138.276C96.9579 138.058 97.4835 137.949 98.1227 137.949C98.9655 137.949 99.7254 138.164 100.403 138.595C101.084 139.021 101.624 139.653 102.022 140.491C102.424 141.325 102.626 142.348 102.626 143.56C102.626 144.758 102.429 145.776 102.036 146.614C101.643 147.452 101.108 148.091 100.431 148.531C99.7538 148.972 98.9868 149.192 98.1298 149.192C97.5048 149.192 96.9863 149.088 96.5744 148.879C96.1625 148.671 95.831 148.42 95.5801 148.126C95.3339 147.828 95.1421 147.546 95.0048 147.281H94.8556V149H92.3272ZM94.8485 143.545C94.8485 144.251 94.948 144.869 95.1468 145.399C95.3504 145.929 95.6416 146.344 96.0204 146.642C96.4039 146.936 96.868 147.082 97.4125 147.082C97.9806 147.082 98.4565 146.931 98.84 146.628C99.2235 146.32 99.5124 145.901 99.7065 145.371C99.9054 144.836 100.005 144.227 100.005 143.545C100.005 142.868 99.9077 142.267 99.7136 141.741C99.5195 141.216 99.2306 140.804 98.8471 140.506C98.4636 140.207 97.9854 140.058 97.4125 140.058C96.8632 140.058 96.3968 140.203 96.0133 140.491C95.6298 140.78 95.3386 141.185 95.1397 141.706C94.9456 142.227 94.8485 142.84 94.8485 143.545ZM109.886 149V134.455H115.34C116.458 134.455 117.395 134.649 118.153 135.037C118.915 135.425 119.49 135.97 119.879 136.67C120.272 137.366 120.468 138.179 120.468 139.107C120.468 140.039 120.269 140.849 119.872 141.536C119.479 142.217 118.899 142.745 118.132 143.119C117.365 143.489 116.422 143.673 115.305 143.673H111.42V141.486H114.95C115.603 141.486 116.138 141.396 116.555 141.216C116.972 141.031 117.279 140.764 117.478 140.413C117.682 140.058 117.784 139.623 117.784 139.107C117.784 138.59 117.682 138.15 117.478 137.786C117.275 137.416 116.964 137.137 116.548 136.947C116.131 136.753 115.594 136.656 114.936 136.656H112.521V149H109.886ZM117.4 142.409L121.001 149H118.061L114.524 142.409H117.4ZM127.453 149.213C126.36 149.213 125.415 148.986 124.619 148.531C123.829 148.072 123.22 147.423 122.794 146.585C122.368 145.742 122.155 144.75 122.155 143.609C122.155 142.487 122.368 141.502 122.794 140.655C123.225 139.803 123.826 139.14 124.598 138.666C125.37 138.188 126.277 137.949 127.318 137.949C127.991 137.949 128.625 138.058 129.222 138.276C129.823 138.489 130.353 138.82 130.813 139.27C131.277 139.72 131.641 140.293 131.906 140.989C132.172 141.68 132.304 142.504 132.304 143.46V144.249H123.362V142.516H129.84C129.835 142.023 129.728 141.585 129.52 141.202C129.312 140.813 129.021 140.508 128.646 140.286C128.277 140.063 127.846 139.952 127.354 139.952C126.828 139.952 126.367 140.08 125.969 140.335C125.571 140.586 125.261 140.918 125.039 141.33C124.821 141.737 124.709 142.184 124.705 142.672V144.185C124.705 144.819 124.821 145.364 125.053 145.818C125.285 146.268 125.609 146.614 126.026 146.855C126.442 147.092 126.93 147.21 127.489 147.21C127.863 147.21 128.201 147.158 128.504 147.054C128.807 146.945 129.07 146.786 129.293 146.578C129.515 146.37 129.683 146.112 129.797 145.804L132.198 146.074C132.046 146.708 131.757 147.262 131.331 147.736C130.91 148.205 130.37 148.569 129.712 148.83C129.054 149.085 128.301 149.213 127.453 149.213ZM139.224 153.318C138.3 153.318 137.507 153.193 136.844 152.942C136.181 152.696 135.649 152.364 135.246 151.947C134.844 151.531 134.564 151.069 134.408 150.562L136.724 150.001C136.828 150.214 136.979 150.425 137.178 150.634C137.377 150.847 137.644 151.022 137.981 151.159C138.322 151.301 138.75 151.372 139.266 151.372C139.995 151.372 140.599 151.195 141.077 150.839C141.555 150.489 141.795 149.911 141.795 149.107V147.04H141.667C141.534 147.305 141.34 147.577 141.084 147.857C140.833 148.136 140.5 148.37 140.083 148.56C139.671 148.749 139.153 148.844 138.528 148.844C137.689 148.844 136.93 148.647 136.248 148.254C135.571 147.857 135.031 147.265 134.628 146.479C134.231 145.688 134.032 144.698 134.032 143.51C134.032 142.312 134.231 141.301 134.628 140.477C135.031 139.649 135.573 139.021 136.255 138.595C136.937 138.164 137.697 137.949 138.535 137.949C139.174 137.949 139.699 138.058 140.111 138.276C140.528 138.489 140.859 138.747 141.106 139.05C141.352 139.348 141.539 139.63 141.667 139.895H141.809V138.091H144.344V149.178C144.344 150.11 144.122 150.882 143.677 151.493C143.232 152.104 142.623 152.561 141.851 152.864C141.08 153.167 140.204 153.318 139.224 153.318ZM139.245 146.827C139.789 146.827 140.253 146.694 140.637 146.429C141.02 146.164 141.312 145.783 141.51 145.286C141.709 144.788 141.809 144.192 141.809 143.496C141.809 142.809 141.709 142.208 141.51 141.692C141.316 141.176 141.028 140.776 140.644 140.491C140.265 140.203 139.799 140.058 139.245 140.058C138.672 140.058 138.194 140.207 137.81 140.506C137.427 140.804 137.138 141.214 136.944 141.734C136.75 142.25 136.653 142.838 136.653 143.496C136.653 144.163 136.75 144.748 136.944 145.25C137.143 145.747 137.434 146.135 137.817 146.415C138.206 146.689 138.681 146.827 139.245 146.827Z" fill="black"/>
</svg>
