<svg width="40" height="41" viewBox="0 0 40 41" fill="none" xmlns="http://www.w3.org/2000/svg">
<path d="M39.456 34.5885L31.6664 26.7988C31.3148 26.4472 30.8382 26.2519 30.3382 26.2519H29.0646C31.221 23.4939 32.5024 20.0249 32.5024 16.2512C32.5024 7.27397 25.2284 0 16.2512 0C7.27397 0 0 7.27397 0 16.2512C0 25.2284 7.27397 32.5024 16.2512 32.5024C20.0249 32.5024 23.4939 31.221 26.2519 29.0646V30.3382C26.2519 30.8382 26.4472 31.3148 26.7988 31.6664L34.5885 39.456C35.3229 40.1904 36.5105 40.1904 37.2371 39.456L39.4482 37.2449C40.1826 36.5105 40.1826 35.3229 39.456 34.5885ZM16.2512 26.2519C10.7273 26.2519 6.25046 21.7828 6.25046 16.2512C6.25046 10.7273 10.7195 6.25046 16.2512 6.25046C21.775 6.25046 26.2519 10.7195 26.2519 16.2512C26.2519 21.775 21.7828 26.2519 16.2512 26.2519Z" fill="#5F6368"/>
</svg>
